<svg xmlns="http://www.w3.org/2000/svg" viewBox="0 0 24 24">
  <path d="M19.365 9.863c.349 0 .63.285.63.631 0 .345-.281.63-.63.63H17.61v1.125h1.755c.349 0 .63.283.63.63 0 .346-.281.63-.63.63H17.61v1.125h1.755c.349 0 .63.285.63.63 0 .349-.281.63-.63.63h-2.386c-.345 0-.627-.281-.627-.63V9.863h2.386zm-4.982 5.401h-.964c-.343 0-.627-.28-.627-.63V9.863h.964c.349 0 .627.285.627.63v4.771zm-2.855-5.401v4.771c0 .349-.282.63-.63.63-.345 0-.627-.281-.627-.63V9.863h1.257zm-2.855 0v4.771c0 .349-.281.63-.63.63H4.982c-.348 0-.63-.281-.63-.63V9.863h1.257v4.141h1.257V9.863h1.257zM24 10.495c0-4.73-4.754-8.587-10.604-8.587-5.848 0-10.604 3.857-10.604 8.587 0 4.24 3.752 7.787 8.814 8.477.344.072.814.222.933.507.107.259.071.665.034.927l-.137.85c-.041.249-.189.97.825.529 1.017-.441 5.479-3.229 7.479-5.531C22.555 13.839 24 12.268 24 10.495z"/>
</svg>
